<?xml version="1.0" encoding="UTF-8" standalone="no"?>
<svg width="161px" height="138px" viewBox="0 0 161 138" version="1.1" xmlns="http://www.w3.org/2000/svg" xmlns:xlink="http://www.w3.org/1999/xlink">
    <!-- Generator: Sketch 3.7.2 (28276) - http://www.bohemiancoding.com/sketch -->
    <title>Iron Man Helmet</title>
    <desc>Created with Sketch.</desc>
    <defs>
        <path d="M146.87508,101 C144.262916,107.866848 140.599823,114.156676 135.766707,119.521278 C128.136481,127.99058 117.806823,134.263757 106.338796,138 L54.9031091,138 C43.9648885,134.426918 34.2272824,128.450076 26.7845967,120.029472 C22.0079075,114.625158 18.2279798,108.109825 15.4742635,101 L13.0041029,101 C8.58436523,101 3.66085121,97.6688917 2.04967256,93.5546021 C2.04967256,93.5546021 0.992159171,91.1593178 0.895856462,90.2203664 C0.203289386,83.4678374 0.764907961,69.9855054 0.764907961,69.9855054 C0.895551995,65.5752325 4.5699743,61.8448472 8.99732204,61.6523538 L11.0014599,61.5652174 L11.0014599,54.6126149 C11.8359243,48.5598791 13.2805449,42.6929246 15.6500617,37.2242525 C18.9403658,29.6304705 24.472262,22.8046575 30.2908714,17.3157845 C38.3491692,9.71414461 48.9893055,4.79230551 60.5027497,2.20710434 C67.1540017,0.713648151 74.0967035,0 81.0014599,0 C100.415931,0 121.010401,5.76378065 133.827882,18.3914974 C140.285902,24.7539061 145.798862,32.839044 148.712267,41.7793225 C150.762435,48.0706159 151.54818,54.7853721 151.839127,61.6212617 L152.554141,61.6523538 C156.981489,61.8448472 160.655911,65.5752325 160.786555,69.9855054 C160.786555,69.9855054 161.348174,83.4678374 160.655607,90.2203664 C160.559304,91.1593178 159.50179,93.5546021 159.50179,93.5546021 C157.890612,97.6688917 152.967098,101 148.54736,101 L146.87508,101 Z" id="path-1"></path>
        <mask id="mask-2" maskContentUnits="userSpaceOnUse" maskUnits="objectBoundingBox" x="0" y="0" width="160.451457" height="138" fill="white">
            <use xlink:href="#path-1"></use>
        </mask>
        <path d="M78.4742155,86.1065052 L78,80.3007812 L106.185547,90.0485927 L106.185547,109.097751 C106.185547,109.097751 99.1104272,113.899363 95.5728674,115.179631 C91.7770939,116.553348 81.1855469,119.300781 81.1855469,119.300781 L80.290662,108.344889 L41.8948848,108.344889 L41,119.300781 C41,119.300781 30.408453,116.553348 26.6126794,115.179631 C23.0751196,113.899363 16,109.097751 16,109.097751 L16,90.0485927 L44.1855469,80.3007812 L43.7113313,86.1065052 L78.4742155,86.1065052 Z" id="path-3"></path>
        <mask id="mask-4" maskContentUnits="userSpaceOnUse" maskUnits="objectBoundingBox" x="0" y="0" width="90.1855469" height="39" fill="white">
            <use xlink:href="#path-3"></use>
        </mask>
        <path d="M106,85.2669496 L106,89.625859 L106.170883,89.9465688 L86.8470462,101.67035 L77.8172724,90 L44.0692208,90 L35.1443226,101.490574 L16.1843719,90 L16,90 L16,89.8882624 L15.8152267,89.7762816 L16,89.4293302 L16,84.2148799 L0.698805753,70.6674143 L0.247981535,47.8578851 L10.9054544,37.5781662 L10.9054544,15.6238501 L32.5004538,0 L42.8066374,14 L79.6574125,14 L89.9635962,0 L111.558595,15.6238501 L111.558595,36.879625 L122.940279,47.8578851 L122.489455,70.6674143 L106,85.2669496 Z" id="path-5"></path>
        <mask id="mask-6" maskContentUnits="userSpaceOnUse" maskUnits="objectBoundingBox" x="0" y="0" width="122.692298" height="101.67035" fill="white">
            <use xlink:href="#path-5"></use>
        </mask>
        <path d="M106,85.2669496 L106,90 L16,90 L16,84.2148799 L0.698805753,70.6674143 L0.247981535,47.8578851 L10.9054544,37.5781662 L10.9054544,15.6238501 L32.5004538,0 L42.8066374,14 L79.6574125,14 L89.9635962,0 L111.558595,15.6238501 L111.558595,36.879625 L122.940279,47.8578851 L122.489455,70.6674143 L106,85.2669496 Z" id="path-7"></path>
        <mask id="mask-8" maskContentUnits="userSpaceOnUse" maskUnits="objectBoundingBox" x="0" y="0" width="122.692298" height="90" fill="white">
            <use xlink:href="#path-7"></use>
        </mask>
        <path d="M8.46087161,1.70530257e-13 L23.5391284,1.70530257e-13 C26.8290695,1.70530257e-13 31.5938116,3.35308225 31.714935,7.50930309 L31.8309635,11.4906969 C31.9518261,15.6379705 27.2786041,19 23.84844,19 L8.15156005,19 C4.72664088,19 0.0479131187,15.6469177 0.169036536,11.4906969 L0.285065026,7.50930309 C0.405927697,3.36202951 5.16589225,1.70530257e-13 8.46087161,1.70530257e-13 Z" id="path-9"></path>
        <mask id="mask-10" maskContentUnits="userSpaceOnUse" maskUnits="objectBoundingBox" x="0" y="0" width="31.6665292" height="19" fill="white">
            <use xlink:href="#path-9"></use>
        </mask>
        <path d="M71.4608716,1.70530257e-13 L86.5391284,1.70530257e-13 C89.8290695,1.70530257e-13 94.5938116,3.35308225 94.714935,7.50930309 L94.8309635,11.4906969 C94.9518261,15.6379705 90.2786041,19 86.84844,19 L71.15156,19 C67.7266409,19 63.0479131,15.6469177 63.1690365,11.4906969 L63.285065,7.50930309 C63.4059277,3.36202951 68.1658923,1.70530257e-13 71.4608716,1.70530257e-13 Z" id="path-11"></path>
        <mask id="mask-12" maskContentUnits="userSpaceOnUse" maskUnits="objectBoundingBox" x="0" y="0" width="31.6665292" height="19" fill="white">
            <use xlink:href="#path-11"></use>
        </mask>
    </defs>
    <g id="Page-1" stroke="none" stroke-width="1" fill="none" fill-rule="evenodd">
        <g id="Iron-Man-Helmet" transform="translate(-164.000000, -138.000000)">
            <g transform="translate(164.000000, 138.000000)">
                <use id="Helmet-Outline-Copy" stroke="#792E0F" mask="url(#mask-2)" stroke-width="8" fill="#EE0C28" xlink:href="#path-1"></use>
                <g id="Faceplate-Copy" transform="translate(20.000000, 18.000000)" fill="#F6B649">
                    <use id="Mouth" stroke="#792E0F" mask="url(#mask-4)" stroke-width="8" xlink:href="#path-3"></use>
                    <use id="Combined-Shape" stroke="#792E0F" mask="url(#mask-6)" stroke-width="4" xlink:href="#path-5"></use>
                    <use id="Combined-Shape" stroke="#792E0F" mask="url(#mask-8)" stroke-width="8" xlink:href="#path-7"></use>
                    <polygon id="Rectangle-28" points="20 62 61.5 62 41.5 90 20 90"></polygon>
                    <polygon id="Rectangle-28" transform="translate(81.350006, 76.000000) scale(-1, 1) translate(-81.350006, -76.000000) " points="60.6000061 62 102.100006 62 82.3500061 90 60.6000061 90"></polygon>
                </g>
                <g id="Eyes-Copy" transform="translate(34.000000, 73.000000)" stroke="#792E0F" stroke-width="8" fill="#FFFFFF">
                    <use id="Rectangle-30" mask="url(#mask-10)" xlink:href="#path-9"></use>
                    <use id="Rectangle-30" mask="url(#mask-12)" transform="translate(78.999996, 9.500000) scale(-1, 1) translate(-78.999996, -9.500000) " xlink:href="#path-11"></use>
                </g>
            </g>
        </g>
    </g>
</svg>