<?xml version="1.0" encoding="UTF-8" standalone="no"?>
<svg width="118px" height="64px" viewBox="0 0 118 64" version="1.1" xmlns="http://www.w3.org/2000/svg" xmlns:xlink="http://www.w3.org/1999/xlink">
    <!-- Generator: Sketch 3.7.2 (28276) - http://www.bohemiancoding.com/sketch -->
    <title>Iron Man Chest</title>
    <desc>Created with Sketch.</desc>
    <defs>
        <polygon id="path-1" points="57.5 10.5385072 89.1156759 25.5770143 88.1297322 63 25.8702678 63 25.8843241 25.5770143"></polygon>
        <mask id="mask-2" maskContentUnits="userSpaceOnUse" maskUnits="objectBoundingBox" x="0" y="0" width="63.2454081" height="52.4614928" fill="white">
            <use xlink:href="#path-1"></use>
        </mask>
        <circle id="path-3" cx="12" cy="12" r="8"></circle>
        <filter x="-50%" y="-50%" width="200%" height="200%" filterUnits="objectBoundingBox" id="filter-4">
            <feGaussianBlur stdDeviation="1.5" in="SourceAlpha" result="shadowBlurInner1"></feGaussianBlur>
            <feOffset dx="1" dy="1" in="shadowBlurInner1" result="shadowOffsetInner1"></feOffset>
            <feComposite in="shadowOffsetInner1" in2="SourceAlpha" operator="arithmetic" k2="-1" k3="1" result="shadowInnerInner1"></feComposite>
            <feColorMatrix values="0 0 0 0 0   0 0 0 0 0   0 0 0 0 0  0 0 0 0.5 0" type="matrix" in="shadowInnerInner1"></feColorMatrix>
        </filter>
        <path d="M115.897306,11.2973489 C115.915199,15.1747471 115.948643,22.4221195 115.948643,22.4221195 L95.5053881,22.0729716 L79.0731362,9.57854624 L87.2434106,0.167905144 C87.3343911,0.236895245 87.4256243,0.305289552 87.5171086,0.373098765 C94.170561,5.30471085 102.152649,8.14157193 110.903109,11 L115.897278,11.2912862 Z" id="path-5"></path>
        <mask id="mask-6" maskContentUnits="userSpaceOnUse" maskUnits="objectBoundingBox" x="0" y="0" width="36.8755071" height="22.2542143" fill="white">
            <use xlink:href="#path-5"></use>
        </mask>
        <mask id="mask-7" maskContentUnits="userSpaceOnUse" maskUnits="objectBoundingBox" x="-1" y="-1" width="38.8755071" height="24.2542143">
            <rect x="78.0731362" y="-0.832094856" width="38.8755071" height="24.2542143" fill="white"></rect>
            <use xlink:href="#path-5" fill="black"></use>
        </mask>
        <path d="M36.8973057,11.2973489 C36.9151988,15.1747471 36.9486434,22.4221195 36.9486434,22.4221195 L16.5053881,22.0729716 L0.0731362131,9.57854624 L8.24341057,0.167905144 C8.33439109,0.236895245 8.42562425,0.305289552 8.51710861,0.373098765 C15.170561,5.30471085 23.1526486,8.14157193 31.9031091,11 L36.8972778,11.2912862 Z" id="path-8"></path>
        <mask id="mask-9" maskContentUnits="userSpaceOnUse" maskUnits="objectBoundingBox" x="0" y="0" width="36.8755071" height="22.2542143" fill="white">
            <use xlink:href="#path-8"></use>
        </mask>
        <mask id="mask-10" maskContentUnits="userSpaceOnUse" maskUnits="objectBoundingBox" x="-1" y="-1" width="38.8755071" height="24.2542143">
            <rect x="-0.926863787" y="-0.832094856" width="38.8755071" height="24.2542143" fill="white"></rect>
            <use xlink:href="#path-8" fill="black"></use>
        </mask>
    </defs>
    <g id="Page-1" stroke="none" stroke-width="1" fill="none" fill-rule="evenodd">
        <g id="Suit-Chest" transform="translate(-185.000000, -260.000000)">
            <g id="Iron-Man-Chest" transform="translate(186.000000, 261.000000)">
                <use id="Polygon-11-Copy" stroke="#792E0F" mask="url(#mask-2)" stroke-width="8" fill="#EE0C28" transform="translate(57.492972, 36.769254) scale(1, -1) translate(-57.492972, -36.769254) " xlink:href="#path-1"></use>
                <g id="Chest-Decoration-Copy" transform="translate(28.000000, 19.000000)">
                    <path d="M14.5,34.5 L28.5,27.5" id="Line" stroke="#792E0F" stroke-width="2" stroke-linecap="square"></path>
                    <path d="M29.5,34.5 L43.5,27.5" id="Line" stroke="#792E0F" stroke-width="2" stroke-linecap="square" transform="translate(36.500000, 31.000000) scale(-1, 1) translate(-36.500000, -31.000000) "></path>
                    <path d="M20.5,37.5 L28.5,32.5" id="Line" stroke="#792E0F" stroke-width="2" stroke-linecap="square"></path>
                    <path d="M29.5,37.5 L37.5,32.5" id="Line" stroke="#792E0F" stroke-width="2" stroke-linecap="square" transform="translate(33.500000, 35.000000) scale(-1, 1) translate(-33.500000, -35.000000) "></path>
                    <path d="M0.5,18 C0.5,18 7.39192708,22 10.8378906,22 C13.7252604,22 19.5,18 19.5,18" id="Line" stroke="#792E0F" stroke-width="3" stroke-linecap="square"></path>
                    <path d="M38.5,18 C38.5,18 45.3919271,22 48.8378906,22 C51.7252604,22 57.5,18 57.5,18" id="Line" stroke="#792E0F" stroke-width="3" stroke-linecap="square" transform="translate(48.000000, 20.000000) scale(-1, 1) translate(-48.000000, -20.000000) "></path>
                    <path d="M8.5,32.5 L27.6049648,22.9475176" id="Line" stroke="#792E0F" stroke-width="2" stroke-linecap="square"></path>
                    <path d="M31.3950352,32.5 L50.5,22.9475176" id="Line" stroke="#792E0F" stroke-width="2" stroke-linecap="square" transform="translate(40.947518, 27.723759) scale(-1, 1) translate(-40.947518, -27.723759) "></path>
                    <g id="Suit-Arc-Reactor" transform="translate(18.000000, 0.000000)">
                        <circle id="Oval-53" fill="#792E0F" cx="12" cy="12" r="12"></circle>
                        <g id="Oval-54">
                            <use fill="#EAD7A0" fill-rule="evenodd" xlink:href="#path-3"></use>
                            <use fill="black" fill-opacity="1" filter="url(#filter-4)" xlink:href="#path-3"></use>
                        </g>
                        <circle id="Oval-55" fill="#F5EFEF" cx="12" cy="12" r="5"></circle>
                    </g>
                </g>
                <g id="Shoulders-Copy" stroke-linecap="round" stroke="#792E0F" stroke-dasharray="1" stroke-linejoin="round">
                    <g id="Right-Shoulder" transform="translate(97.510890, 11.295012) scale(-1, 1) translate(-97.510890, -11.295012) ">
                        <use mask="url(#mask-6)" stroke-width="6" fill="#EE0C28" fill-rule="evenodd" xlink:href="#path-5"></use>
                        <use mask="url(#mask-7)" stroke-width="2" xlink:href="#path-5"></use>
                    </g>
                    <g id="Left-Shoulder">
                        <use mask="url(#mask-9)" stroke-width="6" fill="#EE0C28" fill-rule="evenodd" xlink:href="#path-8"></use>
                        <use mask="url(#mask-10)" stroke-width="2" xlink:href="#path-8"></use>
                    </g>
                </g>
            </g>
        </g>
    </g>
</svg>